<?xml version="1.0" standalone="no"?>
<!DOCTYPE svg PUBLIC "-//W3C//DTD SVG 20010904//EN"
 "http://www.w3.org/TR/2001/REC-SVG-20010904/DTD/svg10.dtd">
<svg version="1.0" xmlns="http://www.w3.org/2000/svg"
 width="1512.000000pt" height="1527.000000pt" viewBox="0 0 1512.000000 1527.000000"
 preserveAspectRatio="xMidYMid meet">

<g transform="translate(0.000000,1527.000000) scale(0.100000,-0.100000)"
fill="#000000" stroke="none">
<path d="M7185 15244 c-586 -33 -1290 -189 -1849 -410 -1835 -727 -3211 -2288
-3701 -4197 -224 -874 -250 -1832 -74 -2722 317 -1607 1275 -3033 2644 -3937
235 -155 411 -256 680 -388 700 -345 1360 -529 2190 -612 203 -20 875 -17
1095 5 715 73 1353 243 1990 532 476 215 964 525 1400 888 179 150 579 548
726 722 443 527 774 1075 1021 1690 381 945 520 1981 402 3010 -235 2065
-1523 3887 -3401 4810 -560 276 -1118 449 -1768 550 -454 70 -850 88 -1355 59z
m-19 -791 c8 -49 13 -99 13 -113 -1 -24 -1 -24 -11 5 -18 50 -47 83 -84 95
-49 17 -274 -16 -274 -39 -1 -31 43 -326 49 -333 10 -11 189 20 215 37 28 19
46 56 46 98 1 61 16 4 34 -123 10 -69 20 -133 22 -142 10 -34 -11 -17 -28 22
-26 62 -63 74 -178 57 -49 -8 -93 -17 -96 -20 -6 -6 30 -286 42 -328 4 -14 14
-14 102 -2 170 24 234 71 279 202 l23 66 -6 -140 c-3 -77 -7 -141 -8 -142 -6
-6 -679 -104 -683 -99 -3 3 11 12 31 20 24 10 37 23 42 41 7 29 -90 712 -107
757 -12 28 -59 54 -84 44 -8 -3 -15 -1 -15 3 0 10 40 17 338 61 117 17 236 40
265 49 29 10 54 17 56 15 2 -2 10 -43 17 -91z m803 51 c146 -38 218 -157 177
-298 -21 -70 -84 -139 -145 -157 l-40 -12 37 -27 c44 -32 71 -66 137 -179 63
-106 130 -179 173 -187 18 -4 32 -11 32 -16 0 -14 -202 -1 -268 18 -36 10 -69
29 -98 56 -43 40 -53 57 -173 307 -9 19 -29 42 -44 51 l-28 17 51 5 c93 9 142
71 148 188 6 124 -54 190 -174 190 l-61 0 -6 -377 c-8 -416 -7 -417 53 -430
17 -3 30 -10 30 -16 0 -7 -38 -8 -112 -4 -62 4 -153 7 -203 8 -81 0 -87 2 -58
12 70 26 67 7 75 425 7 355 6 378 -11 402 -10 14 -29 27 -42 28 -13 2 -28 8
-34 14 -16 16 513 0 584 -18z m1421 -108 c58 -26 124 -54 148 -63 23 -8 42
-19 42 -24 0 -14 -82 -189 -89 -189 -3 0 -6 26 -6 58 0 75 -31 119 -112 159
-165 80 -320 -19 -248 -158 10 -19 73 -107 141 -196 144 -190 155 -208 161
-283 15 -159 -110 -302 -275 -317 -121 -11 -312 57 -415 147 -49 43 -63 69
-58 110 6 51 100 204 116 188 4 -3 2 -23 -4 -45 -15 -52 -14 -92 4 -144 23
-67 67 -114 141 -150 138 -68 271 -25 290 93 9 52 -15 95 -160 290 -73 99
-130 186 -140 214 -45 132 13 276 137 339 47 24 61 26 137 23 76 -4 96 -9 190
-52z m-3218 -117 c204 -44 338 -238 326 -475 -5 -104 -37 -175 -115 -253 -80
-79 -161 -116 -462 -211 -241 -76 -315 -93 -245 -57 33 17 44 35 44 68 0 29
-208 690 -226 716 -16 25 -53 38 -84 30 -11 -3 -20 -2 -20 2 0 8 421 143 535
172 82 21 173 23 247 8z m3917 -358 c207 -110 289 -206 279 -326 -12 -139
-125 -245 -263 -245 -97 0 -175 46 -231 135 -19 29 -19 29 1 21 11 -5 46 -11
77 -14 48 -4 64 0 100 21 106 62 152 203 94 287 -20 30 -122 99 -130 88 -23
-29 -356 -673 -356 -688 0 -12 13 -35 29 -51 16 -16 25 -29 19 -29 -16 0 -348
181 -348 190 0 5 14 3 30 -3 58 -22 69 -7 256 343 105 196 174 336 174 353 0
17 -10 38 -25 53 -51 51 -58 54 294 -135z m-4951 42 c-55 -57 -57 -52 161
-383 110 -168 219 -326 241 -352 32 -38 37 -48 23 -48 -10 0 -212 27 -448 60
-236 33 -433 60 -437 60 -12 0 250 -392 278 -417 29 -27 61 -29 92 -7 13 9 22
11 22 4 0 -11 -331 -232 -338 -226 -2 2 8 15 22 29 16 16 26 37 26 55 0 20
-55 111 -187 313 -102 156 -208 312 -235 347 -46 58 -48 62 -26 62 12 0 214
-27 448 -60 233 -32 425 -58 427 -57 1 2 -61 98 -137 214 -152 233 -161 241
-227 209 -20 -9 -33 -12 -31 -6 4 12 327 228 342 229 6 1 -2 -11 -16 -26z
m5699 -507 c192 -158 248 -217 278 -290 71 -169 -120 -364 -294 -302 -24 9
-45 16 -46 16 -1 0 5 -25 13 -55 13 -48 14 -67 1 -157 -8 -57 -14 -142 -14
-190 0 -74 3 -91 23 -117 30 -41 28 -46 -10 -19 -62 44 -170 152 -189 191 -40
78 -35 179 17 360 24 82 25 106 7 153 -5 13 2 11 30 -10 70 -54 141 -46 222
26 102 88 99 205 -5 288 l-39 31 -69 -83 c-335 -401 -412 -500 -412 -532 0
-17 7 -42 16 -54 9 -13 14 -25 13 -27 -5 -4 -303 244 -307 256 -2 5 11 2 30
-6 25 -12 40 -14 59 -7 16 6 120 124 262 297 256 310 263 322 215 372 -12 13
-16 23 -10 23 7 0 101 -74 209 -164z m-6666 -356 c81 -15 171 -64 236 -128
107 -105 149 -209 140 -346 -10 -166 -113 -329 -280 -447 -177 -124 -371 -126
-537 -3 -160 118 -227 313 -170 498 44 140 193 311 332 379 105 52 184 65 279
47z m3874 -74 c473 -58 892 -182 1302 -386 1032 -512 1786 -1442 2074 -2558
75 -292 109 -551 116 -884 12 -542 -64 -992 -249 -1488 -58 -157 -148 -351
-158 -345 -4 2 -28 55 -54 118 l-47 114 44 109 c130 319 214 659 253 1027 20
192 14 670 -10 847 -60 424 -166 783 -340 1145 -525 1095 -1560 1875 -2751
2074 -238 40 -325 46 -630 46 -313 0 -448 -11 -685 -56 -1055 -200 -1979 -843
-2527 -1759 -591 -989 -695 -2195 -281 -3273 l61 -157 -48 -108 c-26 -59 -51
-111 -55 -115 -8 -9 -68 118 -128 269 -414 1040 -365 2216 134 3215 629 1260
1863 2082 3274 2183 124 9 581 -3 705 -18z m3474 -235 c152 -58 308 -216 372
-379 19 -47 23 -77 24 -167 0 -108 -1 -113 -38 -187 -47 -97 -131 -176 -237
-227 -70 -34 -81 -36 -170 -35 -114 0 -173 20 -277 94 -214 150 -324 414 -255
612 49 139 195 271 340 308 57 14 180 5 241 -19z m-8391 -283 c-24 -78 -21
-82 313 -435 171 -180 336 -346 365 -368 43 -32 51 -41 35 -43 -11 -2 -185 11
-386 28 -202 17 -369 29 -372 27 -9 -10 367 -486 424 -536 50 -45 54 -51 32
-51 -13 1 -246 36 -518 79 -366 58 -504 76 -530 70 -20 -4 -48 -22 -64 -39
-16 -18 -31 -30 -33 -27 -7 7 206 387 217 387 5 0 5 -10 0 -22 -11 -29 2 -63
26 -73 37 -16 562 -102 556 -91 -4 6 -101 130 -216 276 -185 236 -206 265
-185 268 13 2 158 -9 323 -23 165 -14 315 -25 335 -25 34 0 33 2 -160 196
-107 107 -206 200 -219 205 -20 8 -31 6 -52 -11 -39 -28 -44 -25 -21 13 11 17
45 78 77 135 31 57 59 102 61 100 2 -2 -2 -20 -8 -40z m4252 -469 c205 -108
496 -401 630 -634 181 -318 214 -615 104 -944 -79 -238 -195 -381 -309 -381
-41 0 -42 5 -19 94 35 133 -2 240 -133 386 -124 138 -169 269 -145 413 7 38
11 72 9 74 -10 9 -111 -95 -153 -159 -122 -184 -151 -438 -80 -717 20 -77 21
-91 8 -91 -8 0 -62 16 -121 36 -363 121 -491 376 -371 737 42 125 97 225 260
472 76 116 156 246 177 290 l38 80 3 193 c4 221 -5 207 102 151z m4896 -187
c50 -92 89 -169 87 -172 -3 -3 -10 2 -16 11 -18 24 -53 40 -74 32 -60 -22
-495 -271 -526 -301 -61 -59 -80 -103 -75 -182 9 -171 165 -273 323 -213 47
18 485 253 514 276 9 8 12 25 8 55 -3 24 -1 40 4 35 14 -14 128 -227 124 -232
-3 -2 -14 8 -26 22 -12 17 -30 27 -46 27 -14 0 -136 -61 -271 -135 -165 -89
-265 -138 -301 -146 -154 -32 -291 51 -382 233 -95 189 -87 338 24 445 27 27
129 89 282 173 132 72 246 138 253 148 13 17 12 39 -3 75 -4 9 -3 17 1 17 5 0
50 -76 100 -168z m447 -891 c6 -69 177 -643 213 -712 13 -26 20 -50 16 -52 -4
-3 -46 -17 -95 -31 -48 -15 -94 -29 -102 -32 -8 -4 -15 -1 -15 5 0 6 7 11 15
11 8 0 30 14 49 31 51 44 55 80 20 200 -16 54 -32 99 -35 99 -27 0 -725 -222
-737 -234 -10 -10 -17 -33 -17 -56 0 -22 -2 -40 -5 -40 -4 0 -104 317 -119
379 -2 8 12 -2 32 -22 19 -20 42 -37 51 -37 20 0 717 210 728 219 4 4 -6 50
-22 102 -42 135 -80 170 -173 155 -23 -4 -38 -3 -34 1 8 8 192 70 213 72 7 1
13 -24 17 -58z m-3853 -1151 c0 -6 -56 -123 -125 -260 l-125 -250 -1019 0
-1018 0 -129 253 c-71 138 -130 255 -132 260 -2 4 570 7 1272 7 851 0 1276 -3
1276 -10z m3618 -24 c8 -8 -23 -166 -39 -198 -27 -54 -24 -57 19 -16 32 32
148 98 169 98 18 0 53 -68 53 -102 l0 -36 -85 -12 c-46 -7 -102 -9 -125 -5
-48 8 -51 1 -7 -21 37 -18 147 -123 147 -139 0 -15 -49 -59 -82 -73 -26 -11
-28 -9 -67 58 -22 39 -43 91 -47 117 -5 37 -9 44 -15 28 -4 -11 -8 -32 -8 -48
-1 -15 -17 -59 -36 -97 l-35 -69 -37 10 c-36 10 -83 52 -83 74 0 15 99 108
143 134 20 13 37 24 37 26 0 1 -35 2 -77 2 -43 -1 -99 2 -125 7 -47 7 -48 8
-48 43 0 35 35 103 53 103 18 0 135 -65 175 -98 l44 -35 -23 44 c-13 25 -28
80 -34 126 l-12 82 36 9 c29 7 96 -1 109 -12z m-9434 3 c2 -2 -1 -40 -6 -84
-7 -55 -18 -94 -36 -125 l-26 -45 45 37 c25 20 76 51 113 70 l67 33 24 -30
c17 -21 24 -43 25 -72 l0 -42 -47 -7 c-27 -5 -83 -8 -125 -7 -43 0 -78 -1 -78
-2 0 -2 19 -14 43 -28 23 -14 65 -49 94 -79 l52 -53 -27 -33 c-17 -21 -41 -36
-62 -41 -35 -7 -35 -6 -72 58 -26 47 -37 78 -38 109 0 54 -15 55 -24 1 -4 -23
-25 -72 -47 -110 -39 -67 -40 -68 -67 -57 -34 15 -61 37 -74 62 -8 15 -2 27
39 68 26 27 67 61 91 75 23 14 42 26 42 27 0 1 -30 2 -67 2 -38 -1 -94 3 -125
7 -58 8 -58 9 -58 43 0 32 36 104 53 104 23 0 138 -68 176 -104 l43 -41 -25
50 c-14 28 -28 78 -32 115 -3 36 -9 73 -11 82 -3 10 2 18 13 22 20 5 121 2
127 -5z m5383 -631 c-2 -7 -40 -122 -83 -254 l-79 -242 -190 -7 c-104 -3 -408
-4 -675 -1 l-485 5 -87 256 -87 255 845 0 c672 0 845 -3 841 -12z m-5493 -84
c22 -5 22 -6 11 -87 -6 -45 -19 -96 -28 -114 -25 -46 -22 -47 30 -7 25 19 72
48 104 64 l57 29 26 -34 c18 -23 26 -46 26 -73 l0 -40 -57 -7 c-32 -4 -88 -7
-125 -6 -38 0 -68 -1 -68 -4 0 -2 15 -12 33 -21 36 -18 147 -123 147 -139 0
-22 -47 -64 -80 -73 l-35 -8 -37 65 c-22 40 -37 80 -38 101 -1 56 -16 68 -23
17 -3 -24 -25 -76 -47 -115 l-42 -72 -39 20 c-21 11 -46 32 -55 46 -17 25 -16
26 32 76 27 27 69 63 94 80 l45 29 -40 -4 c-22 -3 -79 0 -127 6 l-88 11 0 35
c0 22 10 51 25 74 l26 37 62 -31 c34 -17 81 -49 105 -72 47 -46 51 -44 23 11
-17 34 -45 191 -36 200 8 8 70 20 83 16 8 -2 24 -7 36 -10z m9599 5 c20 -5 37
-14 37 -20 0 -41 -26 -161 -41 -191 -28 -55 -24 -57 24 -11 35 35 140 93 167
93 17 0 50 -69 50 -102 l0 -35 -83 -11 c-45 -6 -103 -8 -127 -6 l-45 6 48 -30
c47 -28 137 -120 137 -139 0 -13 -40 -48 -76 -66 l-31 -16 -38 66 c-21 36 -44
89 -50 117 l-12 51 -7 -45 c-4 -25 -21 -76 -39 -113 l-32 -69 -40 7 c-38 6
-84 44 -85 70 0 17 102 112 150 139 l45 26 -75 -1 c-41 -1 -101 2 -132 6 l-58
7 0 37 c0 22 10 51 25 74 l26 37 69 -35 c38 -19 84 -48 103 -65 19 -16 37 -30
40 -30 3 0 -5 19 -18 43 -16 28 -26 67 -30 118 l-7 77 28 10 c38 14 33 13 77
1z m-6333 -539 c291 -36 597 -133 824 -260 l88 -49 -6 67 c-3 37 -8 102 -12
145 l-6 77 498 0 497 0 -7 -129 -7 -130 122 56 c237 107 507 184 769 219 169
23 509 23 680 0 68 -9 126 -19 128 -21 6 -5 1022 -2568 1022 -2576 0 -4 -17
-3 -38 2 -21 4 -116 20 -212 33 -963 140 -1679 49 -2328 -295 -62 -32 -207
-115 -322 -184 -116 -69 -215 -125 -220 -125 -7 0 -10 279 -10 810 l0 810
-116 0 -115 0 6 -82 c13 -192 75 -1531 71 -1536 -3 -2 -60 28 -128 68 -287
170 -349 206 -469 266 -400 200 -758 294 -1244 325 -332 21 -843 -16 -1241
-90 -33 -6 -44 -5 -41 3 3 6 233 587 512 1291 280 704 509 1281 510 1282 1 3
243 31 310 37 82 6 393 -2 485 -14z m-3181 -181 c22 -8 30 -16 27 -28 -2 -9
-7 -43 -11 -76 -4 -33 -16 -77 -26 -97 -26 -52 -24 -55 16 -19 33 28 174 107
179 99 39 -54 46 -71 46 -106 l0 -39 -52 -7 c-29 -3 -87 -6 -127 -6 l-75 0 45
-28 c24 -16 68 -50 96 -76 42 -38 51 -51 43 -64 -24 -41 -48 -61 -82 -67 l-37
-7 -35 71 c-21 41 -36 85 -36 106 0 47 -16 45 -24 -5 -5 -30 -57 -138 -82
-168 -9 -12 -74 23 -93 49 l-23 31 48 50 c27 28 69 63 93 79 l44 28 -79 1
c-44 0 -99 4 -124 8 -42 7 -45 9 -48 40 -2 24 5 46 22 73 l26 39 73 -36 c39
-20 89 -52 111 -73 l38 -36 -25 50 c-14 28 -28 77 -32 110 -4 33 -9 68 -11 77
-4 13 4 20 28 27 45 13 50 13 87 0z m9453 -8 c12 -10 -13 -164 -33 -203 -26
-51 -24 -55 7 -18 15 17 62 49 104 70 l78 39 27 -34 c20 -27 25 -44 23 -73 -3
-36 -5 -37 -48 -44 -25 -4 -81 -8 -124 -8 l-80 -1 50 -29 c27 -15 69 -49 94
-74 44 -46 44 -47 28 -74 -19 -32 -73 -66 -92 -59 -22 9 -84 128 -92 177 -6
35 -9 40 -15 25 -4 -11 -8 -31 -8 -45 -1 -28 -67 -160 -80 -160 -42 0 -73 16
-92 47 l-22 35 49 50 c27 28 69 63 94 79 l45 29 -66 0 c-36 0 -94 3 -128 6
l-61 7 0 40 c0 28 8 51 25 73 l26 34 77 -39 c42 -21 88 -51 101 -65 36 -39 43
-32 16 17 -16 28 -26 67 -31 119 -7 75 -6 78 17 87 24 10 98 5 111 -8z m-7441
-88 c-12 -20 -14 -14 -5 12 4 9 9 14 11 11 3 -2 0 -13 -6 -23z m5713 -1367
c301 -715 545 -1300 544 -1302 -2 -1 -66 8 -143 21 -601 101 -1312 95 -1879
-15 -83 -16 -151 -28 -153 -26 -2 2 70 24 159 49 699 199 1296 256 1710 163
54 -13 98 -19 98 -15 0 5 -205 562 -455 1240 -250 677 -455 1234 -454 1237 1
10 -30 83 573 -1352z m-6173 123 c-246 -668 -451 -1224 -455 -1236 -7 -21 -5
-21 26 -12 85 25 278 51 423 56 385 14 937 -73 1435 -226 112 -35 108 -38 -15
-11 -119 25 -406 66 -580 81 -204 19 -719 16 -945 -5 -173 -16 -470 -56 -535
-72 -16 -4 -26 -3 -23 2 3 5 254 602 559 1326 304 725 554 1316 556 1314 2 -1
-199 -549 -446 -1217z m-200 564 c-12 -20 -14 -14 -5 12 4 9 9 14 11 11 3 -2
0 -13 -6 -23z m6979 -1278 c298 -709 550 -1309 560 -1332 l19 -43 -97 49
c-230 115 -541 219 -837 280 -799 163 -1711 87 -2550 -214 -173 -62 -176 -63
-145 -38 183 148 977 351 1680 430 224 25 786 25 955 0 325 -49 539 -129 708
-265 44 -35 77 -59 74 -55 -4 6 -888 2397 -915 2473 -32 90 86 -186 548 -1285z
m-7440 30 c-247 -670 -450 -1220 -450 -1223 0 -3 21 15 48 40 172 160 473 263
873 299 169 15 631 6 824 -15 594 -66 1242 -218 1555 -363 79 -37 165 -95 115
-78 -732 254 -1216 346 -1825 347 -402 0 -697 -35 -1065 -129 -238 -61 -522
-166 -674 -250 -36 -20 -62 -30 -59 -22 46 116 1102 2618 1105 2616 2 -2 -199
-552 -447 -1222z m2555 -875 c81 -28 191 -69 244 -91 110 -47 311 -147 311
-154 0 -3 -24 7 -52 21 -90 46 -275 123 -478 200 -107 40 -190 74 -184 74 6 0
78 -23 159 -50z m2380 30 c-11 -5 -83 -32 -160 -61 -77 -28 -220 -86 -317
-129 -98 -43 -178 -76 -178 -74 0 6 171 90 275 134 118 51 363 139 385 139 10
0 8 -3 -5 -9z m1301 -275 c-14 -13 -31 -36 -36 -51 -6 -15 -16 -122 -22 -238
l-11 -211 63 -108 c68 -119 92 -142 136 -131 16 4 26 3 21 -2 -12 -12 -281
-163 -285 -159 -2 2 6 13 17 24 12 12 21 32 21 45 0 13 -29 75 -65 137 l-65
114 -187 97 c-192 100 -236 113 -284 88 -10 -6 -19 -7 -19 -2 0 8 299 182 315
182 4 0 0 -9 -9 -19 -10 -11 -16 -28 -14 -38 3 -15 268 -183 291 -183 4 0 7
76 7 169 0 186 -4 200 -57 186 -38 -9 -33 -5 87 64 114 66 138 75 96 36z
m-4522 -82 c-14 -117 -74 -800 -74 -838 0 -50 20 -98 47 -115 14 -8 15 -10 2
-8 -20 4 -329 180 -329 188 0 3 15 4 34 2 26 -3 37 1 44 15 15 28 36 183 26
193 -5 4 -62 38 -126 75 l-117 67 -73 -59 c-78 -63 -92 -91 -62 -124 27 -30 9
-23 -90 33 -138 78 -139 79 -79 72 32 -4 58 -2 74 6 31 17 610 442 669 491 25
21 48 38 52 39 3 0 4 -17 2 -37z m2376 -17 c0 -2 -15 -13 -32 -24 -18 -11 -60
-39 -93 -63 -33 -24 -54 -35 -46 -26 13 16 157 117 167 117 2 0 4 -2 4 -4z
m-673 -84 c29 -25 21 -22 -32 14 -86 58 -104 74 -48 43 24 -13 60 -39 80 -57z
m2163 -513 c96 -193 164 -317 178 -326 15 -10 33 -13 54 -9 68 13 8 -13 -139
-62 -143 -47 -181 -54 -133 -24 11 7 20 18 20 26 0 26 -158 341 -164 326 -25
-68 -88 -357 -90 -407 0 -35 -4 -63 -9 -63 -4 0 -94 69 -200 154 -105 84 -193
150 -195 145 -5 -11 58 -320 69 -341 5 -9 21 -18 36 -20 21 -2 1 -13 -79 -40
-60 -20 -108 -32 -108 -27 0 5 5 9 10 9 22 0 50 41 50 73 0 17 -25 173 -56
345 -30 173 -54 320 -52 327 2 9 96 -59 246 -176 134 -105 245 -189 247 -187
2 2 36 135 75 296 40 161 75 292 78 292 4 0 77 -140 162 -311z m-3315 259 c73
-16 161 -54 236 -104 99 -65 97 -59 58 -164 -19 -49 -36 -90 -39 -90 -3 0 -6
27 -7 60 -3 74 -28 126 -84 173 -76 65 -192 86 -275 48 -92 -42 -173 -167
-201 -309 -35 -180 44 -298 222 -334 84 -17 136 2 207 73 31 32 59 67 63 78 3
12 10 21 14 21 5 0 -3 -41 -18 -90 -25 -87 -28 -91 -67 -111 -94 -45 -214 -34
-351 32 -191 91 -279 248 -239 422 40 171 146 281 295 307 50 9 108 5 186 -12z
m675 -153 c0 -17 205 -736 216 -757 8 -15 28 -35 45 -44 17 -8 29 -17 27 -19
-2 -2 -78 9 -168 25 -91 17 -169 30 -175 30 -5 1 5 7 23 15 24 10 32 20 32 39
0 46 -24 127 -39 135 -17 9 -196 41 -228 41 -26 0 -95 -102 -91 -133 2 -12 14
-27 28 -34 34 -17 13 -16 -105 3 -102 18 -145 34 -87 34 21 0 42 9 61 28 29
27 414 577 434 620 9 19 27 31 27 17z m1705 -105 c3 -36 9 -73 11 -82 3 -10 1
-18 -5 -18 -6 0 -11 7 -11 15 0 30 -24 65 -57 80 -30 15 -46 15 -126 5 -51 -7
-97 -13 -103 -15 -8 -2 -5 -45 8 -146 10 -79 20 -145 22 -147 8 -7 161 20 177
31 22 16 39 51 39 79 1 18 3 20 9 8 9 -16 31 -178 31 -221 -1 -22 -2 -21 -15
8 -7 17 -25 39 -40 49 -23 15 -35 16 -107 5 -45 -6 -83 -13 -85 -15 -5 -5 29
-270 36 -278 3 -3 49 0 100 8 116 17 159 43 196 117 14 28 25 59 25 69 0 10 4
18 10 18 5 0 8 -12 5 -27 -2 -16 -7 -67 -10 -114 l-6 -85 -252 -33 c-139 -18
-268 -35 -287 -38 l-35 -4 27 16 c15 8 32 24 37 34 7 13 -1 106 -29 317 -22
165 -40 302 -40 306 0 18 -42 48 -67 48 -64 0 -1 12 208 40 123 16 244 36 269
43 54 16 55 14 65 -73z m-782 -19 c117 -32 193 -95 240 -199 17 -38 21 -67 22
-147 0 -94 -2 -105 -33 -167 -39 -80 -101 -138 -181 -170 -53 -21 -73 -23
-338 -26 -174 -2 -283 0 -283 6 0 5 13 12 29 15 17 4 34 14 40 25 11 21 27
596 18 634 -5 17 -20 31 -44 42 -36 16 -26 16 213 11 199 -4 266 -10 317 -24z"/>
<path d="M5905 14206 c-5 -2 -52 -17 -102 -32 -60 -17 -93 -32 -93 -41 0 -14
218 -715 225 -721 2 -2 48 10 102 27 105 33 166 69 203 121 116 163 16 525
-171 621 -39 19 -139 35 -164 25z"/>
<path d="M3860 12945 c-25 -8 -64 -30 -87 -50 -116 -99 -125 -262 -22 -411
107 -157 296 -268 425 -250 100 13 200 98 225 190 17 62 6 153 -27 221 -43 91
-179 224 -275 270 -88 42 -171 52 -239 30z"/>
<path d="M11396 12635 c-82 -33 -155 -86 -225 -160 -150 -161 -162 -340 -30
-459 130 -117 325 -80 503 98 98 98 137 169 144 266 3 53 0 76 -18 118 -27 63
-101 133 -158 150 -65 20 -150 14 -216 -13z"/>
<path d="M5318 4846 c-64 -50 -119 -94 -123 -97 -3 -4 40 -32 95 -64 56 -31
104 -55 106 -52 7 7 45 269 42 288 -2 11 -37 -11 -120 -75z"/>
<path d="M6682 4258 c-40 -60 -72 -112 -69 -114 5 -5 207 -42 207 -38 0 6 -61
258 -63 260 -1 1 -35 -47 -75 -108z"/>
<path d="M7477 4270 c-4 -117 -7 -262 -7 -322 l0 -108 102 0 c118 0 168 18
218 78 49 59 65 122 65 247 0 93 -4 118 -23 160 -49 106 -106 141 -249 151
l-100 7 -6 -213z"/>
<path d="M3008 1924 c-5 -4 -8 -101 -8 -215 0 -206 0 -207 23 -213 58 -15 56
-22 59 172 l3 177 58 -180 c32 -99 66 -186 75 -193 9 -7 30 -12 46 -10 28 3
32 10 90 166 l61 163 3 -173 c3 -184 4 -188 55 -188 l27 0 0 210 c0 193 -1
210 -18 219 -31 16 -101 17 -115 0 -7 -7 -35 -69 -61 -137 -27 -68 -52 -120
-56 -115 -4 4 -28 70 -54 145 -26 75 -55 143 -64 152 -19 16 -113 32 -124 20z"/>
<path d="M11402 1908 c-7 -7 -12 -42 -12 -89 l0 -77 -31 15 c-27 14 -35 14
-73 -1 -24 -9 -51 -25 -59 -34 -63 -70 -62 -257 1 -291 36 -19 95 -13 132 14
24 18 37 22 46 14 7 -6 25 -9 41 -7 l28 3 3 233 2 232 -33 0 c-18 0 -38 -5
-45 -12z m-30 -235 c13 -12 18 -30 18 -70 0 -44 -5 -58 -25 -78 -29 -30 -70
-33 -85 -6 -22 43 -8 142 24 163 19 13 49 9 68 -9z"/>
<path d="M10732 1804 c-27 -19 -27 -61 1 -78 23 -15 71 12 75 42 7 47 -34 66
-76 36z"/>
<path d="M11594 1801 c-50 -23 -74 -55 -74 -99 0 -52 15 -70 76 -88 30 -9 58
-22 61 -31 13 -34 -48 -56 -109 -40 -21 6 -28 3 -33 -13 -3 -10 -1 -28 5 -40
24 -44 168 -13 206 45 44 67 8 136 -76 150 -81 14 -60 68 24 64 47 -3 51 -1
54 21 8 49 -59 65 -134 31z"/>
<path d="M10575 1773 c-16 -3 -37 -11 -46 -19 -10 -9 -41 -83 -69 -165 -29
-82 -54 -148 -55 -147 -2 2 -24 62 -49 133 -26 72 -55 137 -66 146 -24 21
-109 14 -127 -9 -10 -12 -13 -73 -13 -224 l0 -209 43 3 42 3 5 180 5 180 19
-60 c10 -33 36 -111 58 -172 40 -112 40 -113 72 -113 17 0 36 4 42 8 6 4 38
88 72 187 l60 180 1 -173 1 -173 43 3 42 3 3 209 c2 145 -1 213 -9 222 -11 14
-19 15 -74 7z"/>
<path d="M3920 1736 c0 -32 -3 -36 -25 -36 -22 0 -25 -4 -25 -34 0 -28 4 -35
25 -40 25 -6 25 -8 25 -111 0 -95 2 -106 24 -131 20 -24 31 -28 77 -29 54 0
54 0 57 33 3 30 1 32 -27 32 -41 0 -51 23 -51 116 l0 77 46 -7 c26 -3 55 -6
65 -6 17 0 19 -9 19 -100 0 -123 13 -154 69 -171 22 -6 51 -9 65 -5 22 5 26
12 26 41 0 32 -2 35 -22 30 -42 -10 -51 7 -56 99 l-5 86 42 0 c40 0 41 1 41
34 0 31 -3 34 -39 40 -39 6 -40 7 -43 54 -3 47 -3 47 -40 50 l-38 3 0 -47 0
-47 -46 7 c-26 3 -55 6 -65 6 -14 0 -19 9 -21 43 -3 41 -4 42 -40 45 -37 3
-38 3 -38 -32z"/>
<path d="M3614 1714 c-46 -23 -64 -61 -64 -142 0 -55 4 -76 23 -102 36 -53 70
-73 135 -78 107 -8 155 41 155 153 0 64 -16 106 -55 141 -48 43 -137 56 -194
28z m134 -74 c35 -33 41 -129 10 -167 -13 -16 -62 -17 -88 -3 -40 22 -50 139
-14 175 21 21 66 19 92 -5z"/>
<path d="M11010 1719 c-14 -6 -37 -22 -52 -36 -28 -27 -28 -27 -28 -4 0 19 -5
22 -32 19 l-33 -3 -3 -167 c-3 -182 -4 -180 52 -158 26 9 26 11 26 113 0 97 2
106 25 131 32 35 72 35 85 0 6 -14 10 -70 10 -125 0 -107 1 -108 58 -93 21 6
22 10 22 140 0 124 -2 135 -22 158 -26 30 -72 40 -108 25z"/>
<path d="M4978 1684 c-11 -10 -10 -406 1 -423 9 -13 118 -29 209 -30 41 -1 42
0 42 33 0 30 -4 34 -31 40 -17 3 -46 6 -64 6 -58 0 -65 7 -65 67 l0 55 68 -4
67 -3 3 33 c4 37 2 38 -80 47 l-58 6 0 50 0 49 80 -6 80 -7 0 35 c0 21 -6 38
-13 41 -25 9 -232 19 -239 11z"/>
<path d="M10727 1673 c-10 -10 -8 -321 2 -327 5 -3 23 -3 40 0 l31 7 0 163 0
164 -33 0 c-19 0 -37 -3 -40 -7z"/>
<path d="M4362 1620 c-93 -57 -80 -252 21 -303 54 -27 138 -28 174 -1 96 70
80 248 -27 302 -56 28 -123 29 -168 2z m123 -56 c41 -16 60 -127 29 -172 -20
-29 -76 -30 -104 -2 -16 16 -20 33 -20 80 0 82 35 117 95 94z"/>
<path d="M8638 1608 c-14 -11 -45 -75 -80 -168 -8 -22 -12 -17 -46 60 -20 47
-41 91 -45 98 -15 23 -87 12 -87 -14 0 -8 26 -65 57 -127 56 -108 58 -115 63
-207 5 -102 10 -110 66 -96 23 6 24 10 24 90 0 82 1 85 65 220 36 76 63 142
60 147 -9 13 -58 11 -77 -3z"/>
<path d="M7492 1598 c-19 -19 -15 -66 7 -78 11 -5 24 -10 30 -10 16 0 51 38
51 54 0 37 -61 61 -88 34z"/>
<path d="M4670 1575 c-19 -50 21 -96 70 -80 28 9 29 80 1 95 -34 17 -61 12
-71 -15z"/>
<path d="M9838 1581 c-91 -7 -126 -28 -146 -87 -11 -33 -11 -45 1 -75 12 -30
12 -39 1 -54 -17 -23 -18 -59 -3 -86 8 -16 7 -25 -6 -39 -24 -27 -22 -77 4
-103 18 -19 32 -22 94 -21 112 1 177 47 177 125 0 58 -23 73 -123 79 -64 4
-82 8 -82 20 0 10 9 14 25 13 47 -3 98 17 125 49 22 26 26 40 23 74 -3 37 0
44 17 46 15 2 20 11 20 33 0 35 -5 36 -127 26z m12 -82 c17 -31 4 -68 -27 -75
-32 -8 -57 6 -61 35 -8 50 66 83 88 40z m11 -249 c23 -13 24 -28 2 -52 -22
-24 -101 -25 -110 -2 -10 25 10 48 48 55 19 4 35 7 37 8 2 0 12 -4 23 -9z"/>
<path d="M5282 1552 c-9 -7 -12 -47 -10 -168 l3 -159 43 -3 42 -3 0 110 c0
106 1 111 25 127 60 39 85 -2 85 -143 0 -100 1 -103 24 -109 57 -14 61 -8 64
111 2 98 5 112 23 128 24 19 37 21 59 7 12 -7 16 -38 20 -132 l5 -123 43 -3
42 -3 0 126 c0 150 -12 188 -64 210 -49 21 -68 19 -110 -10 -31 -21 -38 -22
-43 -10 -16 44 -113 59 -157 24 -25 -20 -26 -20 -26 -1 0 12 -9 22 -22 26 -29
7 -30 7 -46 -2z"/>
<path d="M9495 1548 c-11 -6 -30 -20 -42 -31 l-23 -20 0 21 c0 18 -6 22 -35
22 l-35 0 0 -165 c0 -181 3 -189 59 -169 26 9 26 11 29 119 2 96 5 112 24 132
26 28 64 30 78 4 5 -11 10 -70 10 -131 l0 -111 43 3 42 3 0 125 c0 138 -11
180 -51 199 -31 14 -73 14 -99 -1z"/>
<path d="M9248 1533 l-28 -4 0 -113 c0 -105 -2 -114 -23 -134 -26 -25 -59 -29
-75 -9 -6 7 -13 64 -14 128 l-3 114 -40 0 -40 0 -3 -125 c-3 -132 5 -170 42
-195 31 -23 88 -18 129 9 33 23 35 23 40 5 6 -21 28 -24 58 -9 18 10 19 23 19
169 0 136 -2 160 -16 165 -9 3 -16 5 -17 5 -1 -1 -14 -4 -29 -6z"/>
<path d="M5804 1507 c-2 -7 -3 -109 -2 -227 l3 -215 43 -3 42 -3 0 70 c0 39 3
71 8 71 4 0 16 -7 26 -15 11 -8 38 -15 60 -15 77 1 116 58 116 170 0 89 -25
145 -75 166 -46 19 -63 18 -108 -6 -29 -16 -37 -17 -37 -6 0 25 -66 37 -76 13z
m181 -81 c13 -9 20 -30 23 -69 8 -94 -40 -137 -95 -85 -32 30 -33 111 -1 145
24 26 46 29 73 9z"/>
<path d="M8752 1493 c-64 -31 -102 -127 -83 -211 20 -90 69 -127 158 -120 98
8 146 63 151 172 5 86 -14 138 -59 161 -37 20 -126 19 -167 -2z m124 -74 c14
-16 19 -36 19 -81 -1 -53 -4 -63 -28 -84 -33 -28 -54 -30 -84 -9 -43 30 -39
159 5 185 28 16 68 11 88 -11z"/>
<path d="M6193 1481 c-54 -34 -68 -65 -68 -152 0 -63 4 -83 21 -105 36 -49 70
-67 131 -72 48 -3 64 0 93 20 48 32 70 80 70 153 0 112 -48 167 -153 173 -49
2 -69 -1 -94 -17z m133 -76 c22 -22 25 -32 22 -86 -3 -53 -7 -65 -29 -81 -58
-44 -117 17 -106 110 9 78 64 106 113 57z"/>
<path d="M6450 1470 c0 -26 77 -301 87 -311 5 -4 24 -10 44 -14 49 -9 61 6 84
104 10 45 22 78 25 74 4 -4 15 -39 25 -78 27 -103 28 -105 84 -105 l48 0 45
158 c49 170 49 185 -6 180 -31 -3 -31 -5 -62 -118 l-32 -115 -10 40 c-6 22
-19 74 -30 115 l-18 75 -41 3 -40 3 -30 -118 -29 -118 -28 110 c-15 60 -32
115 -38 122 -6 7 -26 13 -44 13 -27 0 -34 -4 -34 -20z"/>
<path d="M7010 1457 c-53 -35 -73 -78 -73 -157 0 -125 52 -174 181 -168 60 3
77 7 88 23 18 25 14 62 -6 56 -8 -2 -42 -6 -75 -9 -64 -4 -85 7 -99 55 -7 22
-5 22 96 25 l103 3 3 45 c7 117 -122 192 -218 127z m128 -80 c8 -16 12 -31 9
-33 -3 -3 -32 -4 -65 -2 l-60 3 14 33 c12 30 17 33 51 30 30 -2 41 -9 51 -31z"/>
<path d="M7400 1473 c-8 -3 -25 -15 -37 -26 l-23 -20 0 21 c0 18 -6 22 -35 22
l-35 0 2 -167 3 -168 40 0 40 0 5 111 c6 126 15 147 64 142 29 -3 31 -1 34 36
4 49 -15 65 -58 49z"/>
<path d="M7760 1473 c-8 -3 -25 -14 -36 -25 -21 -19 -21 -19 -27 2 -4 17 -12
21 -39 18 l-33 -3 0 -165 0 -165 40 0 40 0 3 110 c2 96 5 112 24 132 26 28 64
30 78 4 5 -11 10 -69 10 -130 0 -102 1 -110 21 -116 11 -4 31 -4 45 -1 24 6
24 8 24 127 0 130 -11 175 -51 203 -23 16 -69 20 -99 9z"/>
<path d="M8014 1470 c-53 -21 -82 -108 -54 -160 7 -14 5 -27 -7 -49 -15 -25
-16 -35 -6 -62 10 -26 9 -35 -3 -54 -22 -34 -14 -84 18 -108 33 -24 109 -33
164 -18 78 21 120 91 90 149 -19 37 -60 52 -137 52 -50 0 -59 3 -59 18 0 15 8
18 49 18 30 0 59 7 76 18 32 21 59 80 51 111 -4 17 -1 24 14 28 15 4 20 14 20
36 l0 31 -97 -1 c-54 0 -108 -4 -119 -9z m94 -62 c7 -7 12 -24 12 -38 0 -34
-17 -50 -52 -50 -20 0 -32 7 -40 25 -22 48 43 100 80 63z m27 -288 c0 -34 -45
-56 -89 -43 -34 10 -45 35 -25 59 9 11 27 14 63 12 47 -3 51 -5 51 -28z"/>
<path d="M7485 1458 c-3 -8 -4 -83 -3 -168 l3 -155 40 0 40 0 0 165 0 165 -38
3 c-24 2 -39 -1 -42 -10z"/>
<path d="M4681 1371 c-18 -12 -19 -65 -1 -86 8 -10 25 -15 44 -13 29 3 31 6
34 46 3 38 0 43 -23 52 -32 12 -36 12 -54 1z"/>
<path d="M4678 1124 c-5 -4 -8 -101 -8 -215 0 -196 1 -209 19 -219 11 -5 31
-10 45 -10 l26 0 0 91 0 91 28 -6 c15 -3 47 -6 72 -8 l45 -3 0 35 c0 39 -16
47 -97 49 l-48 1 0 60 0 60 48 -6 c26 -3 59 -7 74 -9 42 -7 56 59 15 74 -32
12 -210 25 -219 15z"/>
<path d="M5751 1013 c-32 -83 -131 -379 -131 -395 0 -16 6 -19 42 -16 39 3 42
5 56 46 l14 43 81 -3 80 -3 17 -50 c17 -50 17 -50 63 -53 26 -2 47 1 47 5 0
21 -144 439 -154 445 -6 4 -32 8 -57 8 -42 0 -48 -3 -58 -27z m114 -234 c7
-21 6 -22 -45 -16 -29 4 -55 8 -57 11 -5 4 33 130 45 150 5 8 25 -43 57 -145z"/>
<path d="M6210 1012 c-6 -2 -10 -79 -10 -222 0 -189 2 -219 16 -224 33 -13
195 -6 224 9 46 24 70 62 70 112 0 38 -5 50 -34 80 -34 33 -34 35 -17 52 46
46 30 136 -31 167 -30 15 -191 35 -218 26z m158 -88 c32 -22 31 -81 -1 -93
-13 -5 -35 -7 -50 -4 -25 5 -27 9 -27 59 0 52 1 54 28 54 15 0 38 -7 50 -16z
m-10 -174 c12 0 31 -9 42 -20 45 -45 9 -100 -65 -100 l-45 0 0 66 c0 64 1 66
23 60 12 -3 32 -6 45 -6z"/>
<path d="M7207 1014 c-4 -4 -7 -115 -7 -246 l0 -238 40 0 40 0 0 104 c0 120 3
132 39 150 61 30 81 -8 81 -155 l0 -99 40 0 40 0 0 130 c0 138 -10 179 -49
200 -29 15 -94 12 -117 -5 -10 -8 -22 -15 -26 -15 -4 0 -9 39 -10 88 l-3 87
-30 3 c-17 2 -34 0 -38 -4z"/>
<path d="M6757 991 c-12 -48 19 -79 70 -69 14 2 18 12 18 43 0 40 0 40 -41 43
-35 3 -42 0 -47 -17z"/>
<path d="M8505 1001 l-80 -6 -3 -222 -2 -223 24 -6 c13 -3 34 -1 45 6 19 10
21 20 21 95 l0 85 54 0 c75 0 86 6 86 47 l0 35 -70 -4 -70 -3 0 62 0 62 73 3
72 3 0 35 c0 33 -2 35 -35 36 -19 0 -71 -2 -115 -5z"/>
<path d="M9057 994 c-4 -4 -7 -24 -7 -45 0 -31 -4 -38 -22 -41 -18 -2 -23 -10
-23 -33 0 -23 5 -31 23 -33 21 -3 22 -7 22 -106 0 -89 3 -107 21 -130 16 -21
29 -26 64 -26 64 0 75 7 75 46 0 32 -2 34 -32 32 l-33 -3 -3 98 -3 97 36 0
c33 0 35 2 35 35 0 33 -2 35 -34 35 -33 0 -35 2 -38 38 -3 35 -5 37 -38 40
-20 2 -39 0 -43 -4z"/>
<path d="M9901 990 c-44 -10 -81 -39 -106 -81 -27 -47 -28 -172 -2 -213 37
-57 129 -69 221 -31 30 13 36 20 36 45 0 35 1 35 -64 15 -27 -8 -57 -15 -68
-15 -24 0 -58 35 -58 59 0 16 10 20 63 25 127 13 137 16 143 41 9 36 -18 116
-46 136 -32 22 -76 29 -119 19z m73 -92 c5 -15 8 -30 5 -32 -3 -3 -31 -8 -62
-12 -65 -8 -73 3 -36 50 29 37 79 34 93 -6z"/>
<path d="M4993 970 c-46 -27 -67 -74 -67 -145 -1 -121 71 -191 188 -183 52 4
63 8 92 40 52 57 58 163 13 237 -39 64 -160 92 -226 51z m134 -72 c34 -27 38
-143 7 -169 -23 -19 -77 -13 -96 12 -21 25 -25 127 -5 151 22 28 63 31 94 6z"/>
<path d="M9714 970 c-12 -5 -29 -18 -37 -30 -14 -21 -14 -21 -20 0 -5 20 -30
26 -61 14 -14 -5 -16 -30 -16 -171 l0 -164 43 3 42 3 5 112 c6 125 17 149 74
155 26 2 32 8 34 31 4 29 -12 57 -32 56 -6 0 -21 -4 -32 -9z"/>
<path d="M5280 795 l0 -164 34 -7 c19 -3 39 -3 45 1 7 4 11 45 11 103 0 120
12 145 69 140 34 -3 36 -1 39 30 6 60 -40 82 -91 42 -25 -20 -25 -20 -30 0 -4
15 -14 20 -41 20 l-36 0 0 -165z"/>
<path d="M7547 944 c-4 -4 -7 -22 -7 -41 0 -26 -4 -33 -19 -33 -22 0 -35 -30
-26 -60 3 -11 15 -20 26 -20 17 0 19 -8 19 -92 0 -141 36 -190 125 -174 24 5
35 13 39 32 9 34 -3 49 -39 49 l-30 0 -3 93 -3 92 35 0 c26 0 36 5 41 20 12
37 -3 60 -40 60 -32 0 -34 2 -37 38 -3 35 -5 37 -38 40 -20 2 -39 0 -43 -4z"/>
<path d="M9453 944 c-9 -4 -13 -38 -13 -119 0 -111 -1 -114 -26 -134 -33 -26
-60 -27 -74 -2 -5 11 -10 70 -10 131 l0 111 -42 -3 -43 -3 0 -131 c0 -145 9
-175 56 -195 35 -14 81 -6 119 21 24 17 29 18 34 4 4 -10 16 -14 38 -12 l33 3
0 165 0 165 -30 2 c-16 1 -36 0 -42 -3z"/>
<path d="M8907 903 c-4 -3 -7 -55 -7 -114 l0 -107 -31 -26 c-35 -30 -39 -31
-65 -12 -16 12 -20 30 -24 133 l-5 118 -35 0 -35 0 -3 -132 c-3 -155 6 -186
63 -202 43 -12 71 -5 113 26 31 23 32 23 32 4 0 -17 6 -21 35 -21 l35 0 0 170
0 170 -33 0 c-19 0 -37 -3 -40 -7z"/>
<path d="M6557 883 c-4 -3 -7 -80 -7 -170 l0 -163 40 0 40 0 0 99 c0 85 3 102
21 125 17 21 29 27 53 24 29 -3 31 -1 34 36 5 61 -34 75 -87 30 -29 -24 -31
-24 -31 -6 0 26 -45 44 -63 25z"/>
<path d="M6764 867 c-2 -7 -3 -82 -2 -167 l3 -155 40 0 40 0 3 159 c2 121 -1
161 -10 168 -20 12 -68 9 -74 -5z"/>
<path d="M6954 866 c-17 -8 -39 -24 -48 -37 -18 -26 -21 -90 -6 -119 7 -14 5
-27 -7 -49 -15 -25 -16 -35 -6 -62 10 -26 9 -35 -3 -54 -9 -13 -14 -38 -12
-56 4 -46 43 -72 118 -77 73 -5 100 1 138 33 76 64 32 165 -71 165 -61 0 -97
11 -97 30 0 15 7 17 43 13 80 -9 132 34 132 108 0 28 4 39 17 42 21 6 25 55 6
61 -42 13 -176 14 -204 2z m99 -77 c29 -47 -32 -101 -73 -64 -23 20 -25 37 -9
66 13 24 66 23 82 -2z m8 -249 c39 -21 10 -70 -42 -70 -58 0 -89 36 -57 68 15
15 72 16 99 2z"/>
<path d="M7816 870 c-85 -27 -130 -152 -93 -260 24 -68 116 -102 212 -78 46
12 50 16 53 46 4 36 0 37 -63 21 -72 -18 -125 6 -125 57 0 24 1 24 100 24
l100 0 0 53 c0 56 -24 108 -58 126 -29 16 -93 21 -126 11z m86 -77 c10 -9 18
-27 18 -40 0 -22 -4 -23 -60 -23 -51 0 -60 3 -60 18 0 52 63 81 102 45z"/>
<path d="M8147 860 c-23 -18 -27 -19 -27 -5 0 13 -8 16 -37 13 l-38 -3 0 -165
c0 -180 0 -181 61 -166 23 6 24 9 24 112 0 99 1 106 26 130 18 19 31 24 49 20
20 -5 26 -2 31 18 10 42 1 61 -32 64 -19 2 -40 -5 -57 -18z"/>
</g>
</svg>
